<?xml version="1.0" standalone="no"?>
<!DOCTYPE svg PUBLIC "-//W3C//DTD SVG 20010904//EN"
 "http://www.w3.org/TR/2001/REC-SVG-20010904/DTD/svg10.dtd">
<svg version="1.0" xmlns="http://www.w3.org/2000/svg"
 width="400.000000pt" height="400.000000pt" viewBox="0 0 400.000000 400.000000"
 preserveAspectRatio="xMidYMid meet">
<metadata>
Created by potrace 1.11, written by Peter Selinger 2001-2013
</metadata>
<g transform="translate(0.000000,400.000000) scale(0.100000,-0.100000)"
fill="#000000" stroke="none">
<path d="M1948 3995 c-2 -2 -26 -7 -53 -10 -109 -15 -269 -80 -368 -151 -79
-57 -143 -121 -210 -209 -34 -44 -63 -82 -66 -85 -39 -34 -150 -203 -185 -280
-33 -72 -38 -106 -20 -121 8 -7 123 -61 256 -120 l240 -108 90 87 c72 69 96
101 120 154 28 61 34 68 81 89 77 34 242 33 357 -2 229 -70 401 -183 488 -322
67 -107 86 -170 85 -275 -3 -158 -78 -259 -265 -353 -165 -83 -473 -269 -501
-304 -5 -5 -6 9 -4 32 3 24 -1 52 -8 67 -7 13 -11 27 -8 29 10 11 -19 47 -37
47 -22 0 -43 -32 -38 -58 2 -17 -49 -114 -65 -121 -4 -1 -25 -18 -45 -37 -20
-19 -39 -34 -42 -34 -25 2 -117 42 -127 56 -22 29 -16 43 47 104 49 49 89 104
95 130 1 3 7 16 13 30 20 40 39 151 36 204 -6 93 -62 224 -121 283 -194 192
-480 196 -667 8 -100 -100 -149 -257 -124 -397 21 -114 103 -239 202 -307 44
-30 137 -66 199 -76 31 -5 36 -9 27 -20 -6 -8 -28 -19 -48 -26 -137 -44 -200
-119 -187 -223 5 -43 4 -48 -12 -41 -10 4 -38 14 -63 23 -25 8 -65 30 -90 48
-25 18 -74 40 -110 49 -132 34 -146 39 -180 72 -40 37 -52 40 -70 18 -10 -12
-8 -21 10 -50 12 -19 29 -39 38 -45 15 -8 15 -9 1 -10 -9 0 -30 5 -47 11 -58
20 -96 -24 -68 -79 48 -92 231 -161 314 -118 36 19 49 14 125 -50 56 -47 145
-87 190 -86 41 1 41 4 16 -108 -6 -25 -13 -88 -15 -140 -2 -52 -6 -102 -9
-110 -9 -33 -19 -171 -19 -280 -1 -134 11 -238 34 -315 11 -38 20 -94 26 -166
l4 -57 -40 9 c-22 5 -53 6 -68 2 -31 -8 -39 -10 -51 -12 -18 -2 -51 -86 -45
-116 9 -53 15 -66 35 -74 11 -4 97 -6 191 -4 169 2 171 2 190 -22 17 -22 24
-23 106 -20 48 1 107 6 132 10 25 3 57 8 72 9 38 4 58 24 58 57 0 15 3 30 8
33 4 2 39 7 77 11 144 13 173 19 235 51 140 73 214 233 186 407 -33 210 -254
363 -443 308 -41 -12 -42 -1 -12 85 26 76 34 141 21 187 -6 20 -9 37 -7 37 1
0 36 -13 76 -29 41 -16 111 -44 157 -61 l83 -33 102 33 c56 17 107 37 113 44
6 6 20 45 29 86 20 85 47 171 66 215 20 45 86 131 123 158 37 28 196 124 301
182 105 57 283 178 348 236 131 117 226 283 263 458 3 14 8 40 11 56 4 17 6
91 6 165 0 103 -5 156 -22 224 -101 417 -411 760 -851 941 -125 51 -277 97
-370 110 -44 7 -297 15 -302 10z"/>
</g>
</svg>
